<mxfile host="app.diagrams.net" agent="Mozilla/5.0 (Windows NT 10.0; Win64; x64) AppleWebKit/537.36 (KHTML, like Gecko) Chrome/136.0.0.0 Safari/537.36" version="27.0.6">
  <diagram name="Страница — 1" id="B9i7cTdJXqGPx0nd2ezO">
    <mxGraphModel dx="1213" dy="658" grid="1" gridSize="10" guides="1" tooltips="1" connect="1" arrows="1" fold="1" page="1" pageScale="1" pageWidth="827" pageHeight="1169" math="0" shadow="0">
      <root>
        <mxCell id="0" />
        <mxCell id="1" parent="0" />
        <mxCell id="R8DVxMu4MKU9OBRDmNfI-2" value="" style="rounded=0;whiteSpace=wrap;html=1;" parent="1" vertex="1">
          <mxGeometry x="630" y="90" width="200" height="230" as="geometry" />
        </mxCell>
        <mxCell id="R8DVxMu4MKU9OBRDmNfI-3" value="&lt;font style=&quot;font-size: 15px;&quot;&gt;Клиентская часть&lt;/font&gt;" style="text;html=1;align=center;verticalAlign=middle;resizable=0;points=[];autosize=1;strokeColor=none;fillColor=none;" parent="1" vertex="1">
          <mxGeometry x="654" y="100" width="150" height="30" as="geometry" />
        </mxCell>
        <mxCell id="R8DVxMu4MKU9OBRDmNfI-59" style="edgeStyle=orthogonalEdgeStyle;rounded=0;orthogonalLoop=1;jettySize=auto;html=1;exitX=0.5;exitY=1;exitDx=0;exitDy=0;entryX=0.5;entryY=0;entryDx=0;entryDy=0;endArrow=none;startFill=0;" parent="1" source="R8DVxMu4MKU9OBRDmNfI-5" target="R8DVxMu4MKU9OBRDmNfI-6" edge="1">
          <mxGeometry relative="1" as="geometry" />
        </mxCell>
        <mxCell id="R8DVxMu4MKU9OBRDmNfI-5" value="Подсистема клиентского взаимодействия" style="rounded=0;whiteSpace=wrap;html=1;" parent="1" vertex="1">
          <mxGeometry x="669" y="150" width="120" height="60" as="geometry" />
        </mxCell>
        <mxCell id="R8DVxMu4MKU9OBRDmNfI-6" value="Подсистема передачи данных (API-клиент)" style="rounded=0;whiteSpace=wrap;html=1;" parent="1" vertex="1">
          <mxGeometry x="669" y="240" width="120" height="60" as="geometry" />
        </mxCell>
        <mxCell id="R8DVxMu4MKU9OBRDmNfI-7" value="" style="rounded=0;whiteSpace=wrap;html=1;" parent="1" vertex="1">
          <mxGeometry x="470" y="350" width="550" height="370" as="geometry" />
        </mxCell>
        <mxCell id="R8DVxMu4MKU9OBRDmNfI-19" style="edgeStyle=orthogonalEdgeStyle;rounded=0;orthogonalLoop=1;jettySize=auto;html=1;exitX=1;exitY=0.5;exitDx=0;exitDy=0;entryX=0;entryY=0.5;entryDx=0;entryDy=0;jumpStyle=arc;endArrow=none;startFill=0;" parent="1" source="R8DVxMu4MKU9OBRDmNfI-8" target="R8DVxMu4MKU9OBRDmNfI-9" edge="1">
          <mxGeometry relative="1" as="geometry">
            <Array as="points">
              <mxPoint x="580" y="512" />
              <mxPoint x="625" y="512" />
            </Array>
          </mxGeometry>
        </mxCell>
        <mxCell id="R8DVxMu4MKU9OBRDmNfI-20" style="edgeStyle=orthogonalEdgeStyle;rounded=0;orthogonalLoop=1;jettySize=auto;html=1;exitX=1.005;exitY=0.623;exitDx=0;exitDy=0;entryX=0;entryY=0.5;entryDx=0;entryDy=0;jumpStyle=arc;exitPerimeter=0;endArrow=none;startFill=0;" parent="1" source="R8DVxMu4MKU9OBRDmNfI-8" target="R8DVxMu4MKU9OBRDmNfI-16" edge="1">
          <mxGeometry relative="1" as="geometry">
            <Array as="points" />
          </mxGeometry>
        </mxCell>
        <mxCell id="R8DVxMu4MKU9OBRDmNfI-22" style="edgeStyle=orthogonalEdgeStyle;rounded=0;orthogonalLoop=1;jettySize=auto;html=1;exitX=1;exitY=0.25;exitDx=0;exitDy=0;entryX=0;entryY=0.5;entryDx=0;entryDy=0;jumpStyle=arc;endArrow=none;startFill=0;" parent="1" source="R8DVxMu4MKU9OBRDmNfI-8" target="R8DVxMu4MKU9OBRDmNfI-17" edge="1">
          <mxGeometry relative="1" as="geometry">
            <Array as="points">
              <mxPoint x="580" y="440" />
            </Array>
          </mxGeometry>
        </mxCell>
        <mxCell id="R8DVxMu4MKU9OBRDmNfI-32" style="edgeStyle=orthogonalEdgeStyle;rounded=0;orthogonalLoop=1;jettySize=auto;html=1;entryX=0;entryY=0.5;entryDx=0;entryDy=0;endArrow=none;startFill=0;jumpStyle=arc;" parent="1" target="R8DVxMu4MKU9OBRDmNfI-15" edge="1">
          <mxGeometry relative="1" as="geometry">
            <mxPoint x="580" y="652" as="sourcePoint" />
            <Array as="points">
              <mxPoint x="580" y="652" />
              <mxPoint x="625" y="652" />
            </Array>
          </mxGeometry>
        </mxCell>
        <mxCell id="R8DVxMu4MKU9OBRDmNfI-8" value="Подсистема API-слоя (GraphQL)" style="rounded=0;whiteSpace=wrap;html=1;" parent="1" vertex="1">
          <mxGeometry x="500" y="390" width="80" height="310" as="geometry" />
        </mxCell>
        <mxCell id="R8DVxMu4MKU9OBRDmNfI-40" style="edgeStyle=orthogonalEdgeStyle;rounded=0;orthogonalLoop=1;jettySize=auto;html=1;exitX=1;exitY=0.5;exitDx=0;exitDy=0;endArrow=none;startFill=0;" parent="1" source="R8DVxMu4MKU9OBRDmNfI-9" target="R8DVxMu4MKU9OBRDmNfI-37" edge="1">
          <mxGeometry relative="1" as="geometry" />
        </mxCell>
        <mxCell id="R8DVxMu4MKU9OBRDmNfI-9" value="Подсистема аутентификации и авторизации" style="rounded=0;whiteSpace=wrap;html=1;" parent="1" vertex="1">
          <mxGeometry x="670" y="482.5" width="120" height="60" as="geometry" />
        </mxCell>
        <mxCell id="R8DVxMu4MKU9OBRDmNfI-39" style="edgeStyle=orthogonalEdgeStyle;rounded=0;orthogonalLoop=1;jettySize=auto;html=1;exitX=0.668;exitY=1;exitDx=0;exitDy=0;endArrow=none;startFill=0;exitPerimeter=0;" parent="1" source="R8DVxMu4MKU9OBRDmNfI-11" target="R8DVxMu4MKU9OBRDmNfI-37" edge="1">
          <mxGeometry relative="1" as="geometry">
            <Array as="points">
              <mxPoint x="820" y="470" />
            </Array>
          </mxGeometry>
        </mxCell>
        <mxCell id="R8DVxMu4MKU9OBRDmNfI-11" value="Подсистема &lt;br&gt;бизнес-логики &lt;br&gt;SRS-движка" style="rounded=0;whiteSpace=wrap;html=1;" parent="1" vertex="1">
          <mxGeometry x="740" y="410" width="120" height="60" as="geometry" />
        </mxCell>
        <mxCell id="R8DVxMu4MKU9OBRDmNfI-12" value="Подсистема доступа к данным" style="rounded=0;whiteSpace=wrap;html=1;" parent="1" vertex="1">
          <mxGeometry x="880" y="446.25" width="120" height="60" as="geometry" />
        </mxCell>
        <mxCell id="R8DVxMu4MKU9OBRDmNfI-13" value="Подсистема управления схемой БД" style="rounded=0;whiteSpace=wrap;html=1;" parent="1" vertex="1">
          <mxGeometry x="880" y="518.75" width="120" height="60" as="geometry" />
        </mxCell>
        <mxCell id="R8DVxMu4MKU9OBRDmNfI-14" value="Инфраструктурная подсистема" style="rounded=0;whiteSpace=wrap;html=1;" parent="1" vertex="1">
          <mxGeometry x="880" y="612.5" width="120" height="60" as="geometry" />
        </mxCell>
        <mxCell id="R8DVxMu4MKU9OBRDmNfI-15" value="Подсистема работы с карточками" style="rounded=0;whiteSpace=wrap;html=1;" parent="1" vertex="1">
          <mxGeometry x="670" y="622.5" width="120" height="60" as="geometry" />
        </mxCell>
        <mxCell id="R8DVxMu4MKU9OBRDmNfI-41" style="edgeStyle=orthogonalEdgeStyle;rounded=0;orthogonalLoop=1;jettySize=auto;html=1;exitX=1;exitY=0.5;exitDx=0;exitDy=0;endArrow=none;startFill=0;" parent="1" source="R8DVxMu4MKU9OBRDmNfI-16" edge="1">
          <mxGeometry relative="1" as="geometry">
            <mxPoint x="820" y="582.5686274509804" as="targetPoint" />
          </mxGeometry>
        </mxCell>
        <mxCell id="R8DVxMu4MKU9OBRDmNfI-16" value="Подсистема работы с колодами" style="rounded=0;whiteSpace=wrap;html=1;" parent="1" vertex="1">
          <mxGeometry x="670" y="552.5" width="120" height="60" as="geometry" />
        </mxCell>
        <mxCell id="R8DVxMu4MKU9OBRDmNfI-27" style="edgeStyle=orthogonalEdgeStyle;rounded=0;orthogonalLoop=1;jettySize=auto;html=1;exitX=1;exitY=0.5;exitDx=0;exitDy=0;jumpStyle=arc;endArrow=none;startFill=0;startArrow=none;" parent="1" source="R8DVxMu4MKU9OBRDmNfI-17" edge="1">
          <mxGeometry relative="1" as="geometry">
            <mxPoint x="740" y="440" as="targetPoint" />
          </mxGeometry>
        </mxCell>
        <mxCell id="R8DVxMu4MKU9OBRDmNfI-17" value="Подсистема режима повторения" style="rounded=0;whiteSpace=wrap;html=1;" parent="1" vertex="1">
          <mxGeometry x="600" y="410" width="120" height="60" as="geometry" />
        </mxCell>
        <mxCell id="R8DVxMu4MKU9OBRDmNfI-37" value="" style="shape=waypoint;sketch=0;fillStyle=solid;size=6;pointerEvents=1;points=[];fillColor=none;resizable=0;rotatable=0;perimeter=centerPerimeter;snapToPoint=1;" parent="1" vertex="1">
          <mxGeometry x="810" y="572.5" width="20" height="20" as="geometry" />
        </mxCell>
        <mxCell id="R8DVxMu4MKU9OBRDmNfI-42" style="edgeStyle=orthogonalEdgeStyle;rounded=0;orthogonalLoop=1;jettySize=auto;html=1;exitX=1;exitY=0.5;exitDx=0;exitDy=0;entryX=0.55;entryY=0.719;entryDx=0;entryDy=0;entryPerimeter=0;endArrow=none;startFill=0;" parent="1" source="R8DVxMu4MKU9OBRDmNfI-15" target="R8DVxMu4MKU9OBRDmNfI-37" edge="1">
          <mxGeometry relative="1" as="geometry" />
        </mxCell>
        <mxCell id="R8DVxMu4MKU9OBRDmNfI-48" value="" style="shape=waypoint;sketch=0;fillStyle=solid;size=6;pointerEvents=1;points=[];fillColor=none;resizable=0;rotatable=0;perimeter=centerPerimeter;snapToPoint=1;" parent="1" vertex="1">
          <mxGeometry x="840" y="572.5" width="20" height="20" as="geometry" />
        </mxCell>
        <mxCell id="R8DVxMu4MKU9OBRDmNfI-51" value="" style="endArrow=none;html=1;rounded=0;startFill=0;" parent="1" source="R8DVxMu4MKU9OBRDmNfI-37" target="R8DVxMu4MKU9OBRDmNfI-48" edge="1">
          <mxGeometry width="50" height="50" relative="1" as="geometry">
            <mxPoint x="910" y="540" as="sourcePoint" />
            <mxPoint x="960" y="490" as="targetPoint" />
          </mxGeometry>
        </mxCell>
        <mxCell id="R8DVxMu4MKU9OBRDmNfI-52" style="edgeStyle=orthogonalEdgeStyle;rounded=0;orthogonalLoop=1;jettySize=auto;html=1;exitX=0;exitY=0.5;exitDx=0;exitDy=0;entryX=0.548;entryY=0.341;entryDx=0;entryDy=0;entryPerimeter=0;endArrow=none;startFill=0;" parent="1" source="R8DVxMu4MKU9OBRDmNfI-12" target="R8DVxMu4MKU9OBRDmNfI-48" edge="1">
          <mxGeometry relative="1" as="geometry" />
        </mxCell>
        <mxCell id="R8DVxMu4MKU9OBRDmNfI-53" style="edgeStyle=orthogonalEdgeStyle;rounded=0;orthogonalLoop=1;jettySize=auto;html=1;exitX=0;exitY=0.5;exitDx=0;exitDy=0;entryX=0.85;entryY=0.527;entryDx=0;entryDy=0;entryPerimeter=0;endArrow=none;startFill=0;" parent="1" source="R8DVxMu4MKU9OBRDmNfI-14" target="R8DVxMu4MKU9OBRDmNfI-48" edge="1">
          <mxGeometry relative="1" as="geometry" />
        </mxCell>
        <mxCell id="R8DVxMu4MKU9OBRDmNfI-54" value="&lt;font style=&quot;font-size: 15px;&quot;&gt;Серверная часть&lt;/font&gt;" style="text;html=1;align=center;verticalAlign=middle;resizable=0;points=[];autosize=1;strokeColor=none;fillColor=none;" parent="1" vertex="1">
          <mxGeometry x="675" y="360" width="140" height="30" as="geometry" />
        </mxCell>
        <mxCell id="R8DVxMu4MKU9OBRDmNfI-55" value="БД" style="shape=cylinder3;whiteSpace=wrap;html=1;boundedLbl=1;backgroundOutline=1;size=15;" parent="1" vertex="1">
          <mxGeometry x="895" y="250" width="90" height="65" as="geometry" />
        </mxCell>
        <mxCell id="R8DVxMu4MKU9OBRDmNfI-56" style="edgeStyle=orthogonalEdgeStyle;rounded=0;orthogonalLoop=1;jettySize=auto;html=1;exitX=0.5;exitY=0;exitDx=0;exitDy=0;entryX=0.5;entryY=1;entryDx=0;entryDy=0;entryPerimeter=0;endArrow=none;startFill=0;" parent="1" source="R8DVxMu4MKU9OBRDmNfI-12" target="R8DVxMu4MKU9OBRDmNfI-55" edge="1">
          <mxGeometry relative="1" as="geometry" />
        </mxCell>
        <mxCell id="R8DVxMu4MKU9OBRDmNfI-58" style="edgeStyle=orthogonalEdgeStyle;rounded=0;orthogonalLoop=1;jettySize=auto;html=1;exitX=1;exitY=0.5;exitDx=0;exitDy=0;entryX=0.5;entryY=1;entryDx=0;entryDy=0;entryPerimeter=0;endArrow=none;startFill=0;" parent="1" source="R8DVxMu4MKU9OBRDmNfI-13" target="R8DVxMu4MKU9OBRDmNfI-55" edge="1">
          <mxGeometry relative="1" as="geometry">
            <Array as="points">
              <mxPoint x="1010" y="549" />
              <mxPoint x="1010" y="417" />
              <mxPoint x="940" y="417" />
            </Array>
          </mxGeometry>
        </mxCell>
        <mxCell id="R8DVxMu4MKU9OBRDmNfI-63" value="JDBC" style="text;html=1;align=center;verticalAlign=middle;resizable=0;points=[];autosize=1;strokeColor=none;fillColor=none;" parent="1" vertex="1">
          <mxGeometry x="935" y="320" width="50" height="30" as="geometry" />
        </mxCell>
        <mxCell id="UDxNy-boOG5zJGYR122a-3" value="" style="shape=flexArrow;endArrow=classic;startArrow=classic;html=1;rounded=0;edgeStyle=orthogonalEdgeStyle;entryX=0;entryY=0.75;entryDx=0;entryDy=0;exitX=0.122;exitY=0.001;exitDx=0;exitDy=0;exitPerimeter=0;width=29.038461538461537;endSize=13.727906976744187;startSize=10.209302325581396;startWidth=25.57245080500895;endWidth=25.80500894454383;" parent="1" source="R8DVxMu4MKU9OBRDmNfI-7" target="R8DVxMu4MKU9OBRDmNfI-2" edge="1">
          <mxGeometry width="100" height="100" relative="1" as="geometry">
            <mxPoint x="660" y="390" as="sourcePoint" />
            <mxPoint x="760" y="290" as="targetPoint" />
            <Array as="points">
              <mxPoint x="537" y="310" />
              <mxPoint x="537" y="262" />
            </Array>
          </mxGeometry>
        </mxCell>
        <mxCell id="UDxNy-boOG5zJGYR122a-4" value="HTTP" style="edgeLabel;html=1;align=center;verticalAlign=middle;resizable=0;points=[];" parent="UDxNy-boOG5zJGYR122a-3" vertex="1" connectable="0">
          <mxGeometry x="0.1412" y="-2" relative="1" as="geometry">
            <mxPoint x="-7" y="-2" as="offset" />
          </mxGeometry>
        </mxCell>
      </root>
    </mxGraphModel>
  </diagram>
</mxfile>
